# xmcd CD database file
#
# Track frame offsets:
#	150
#	14863
#	23008
#	37569
#	43702
#	67039
#	90169
#	121691
#	145477
#	164925
#	189554
#	197035
#	208571
#
# Disc length: 3035 seconds
#
# Revision: 0
# Processed by: cddbd v1.5.1PL0 Copyright (c) Steve Scherf et al.
# Submitted via: CDex 1.51
#
DISCID=b20bd90d
DTITLE=Ricora Music Team - ヨロシク SUN
DYEAR=1900
DGENRE=
TTITLE0=ATTACK
TTITLE1=The people have iron wing
TTITLE2=0862
TTITLE3=Rustimage
TTITLE4=Angel
TTITLE5=我が悲愴
TTITLE6=Kiss of Anima(web Edit)
TTITLE7=モモイロクモサン
TTITLE8=ROAD
TTITLE9=Jingle Bell(Dancin' Santa Claus mix RadioEdit)
TTITLE10=Wake UP on Saturday
TTITLE11=WHO 我
TTITLE12=chun feng
EXTD=
EXTT0=
EXTT1=
EXTT2=
EXTT3=
EXTT4=
EXTT5=
EXTT6=
EXTT7=
EXTT8=
EXTT9=
EXTT10=
EXTT11=
EXTT12=
PLAYORDER=
